<svg xmlns="http://www.w3.org/2000/svg" viewBox="0 0 131.79 34.79"><defs><style>.cls-1{fill:#cb8035;}.cls-2{fill:#63341e;}</style></defs><g id="Capa_2" data-name="Capa 2"><g id="Capa_1-2" data-name="Capa 1"><path class="cls-1" d="M32.25,34.76c-10.19,0-20.38,0-30.57,0C.36,34.8,0,34.41,0,33.12-.2,16.39,11.06,2.71,27.72.34A32.12,32.12,0,0,1,64.43,33.56c-.06,1.3-.75,1.21-1.61,1.21ZM21.09,21.1a2.77,2.77,0,0,0,2.63-2.67A3,3,0,0,0,21,15.84a2.71,2.71,0,0,0-2.54,2.89A2.56,2.56,0,0,0,21.09,21.1Zm31.29-2.67A2.74,2.74,0,0,0,55,15.74a2.93,2.93,0,0,0-2.81-2.51,2.6,2.6,0,1,0,.22,5.2ZM36.71,30.17a3.07,3.07,0,0,0,2.81,2.55A2.75,2.75,0,0,0,42,30a2.61,2.61,0,0,0-2.76-2.5A2.76,2.76,0,0,0,36.71,30.17ZM26.38,28.54a2.44,2.44,0,0,0-2.52-2.45,2.51,2.51,0,1,0,2.52,2.45Zm13-10.15a2.94,2.94,0,0,0-2.8-2.5A2.63,2.63,0,0,0,34,18.59a2.81,2.81,0,0,0,2.75,2.51A2.75,2.75,0,0,0,39.35,18.39Zm-28.69,7.7a2.68,2.68,0,0,0-2.87,2.4,2.65,2.65,0,0,0,2.65,2.62,2.42,2.42,0,0,0,2.66-2.49A2.3,2.3,0,0,0,10.66,26.09ZM46,8.16a2.51,2.51,0,1,0-5-.05,2.51,2.51,0,1,0,5,.05Zm9.64,19.33a2.52,2.52,0,0,0-2.48-2.68,2.36,2.36,0,0,0-2.54,2.4A2.48,2.48,0,0,0,53,30,2.42,2.42,0,0,0,55.66,27.49ZM24.93,3.79a2.3,2.3,0,0,0-2.54,2.55,2.29,2.29,0,0,0,2.47,2.47A2.3,2.3,0,0,0,27.4,6.26,2.3,2.3,0,0,0,24.93,3.79Z"/><path class="cls-2" d="M86.88,6.14c.88-.15.52-1.39,1.55-1.57.2.54.38,1.33,1.09,1.45.51.09.78-.52,1-.94.64-1.23,1.56-2.07,3-1.84s2.07,1.33,2.57,2.54a5.34,5.34,0,0,1,.21.64c.62-.17.48-.79.74-1.16a1.93,1.93,0,0,1,1.07-.91c-.15.8.12,1.53.83,1.67.54.11.8-.63,1.06-1.09.69-1.21,1.72-2,3.09-1.66a3.56,3.56,0,0,1,2.55,3.15,13.7,13.7,0,0,1-.58,5.9c-.41,1.41-2.87,2.84-4.55,2.78a4.19,4.19,0,0,1-3.61-3c-.2-.67-.34-1.36-.51-2.06-.58.28-.41.8-.49,1.19a4.82,4.82,0,0,1-4.72,3.83c-1.83,0-3.4-1.55-3.93-3.67a25,25,0,0,1-.33-5.32Zm7.63,3.43a13.23,13.23,0,0,1-.37-3.16c-.07-1.13-.57-1.44-1.63-.92-1.59.78-3.55,4.28-3.21,6,.2,1,.49,2.17,1.78,2.31A2.45,2.45,0,0,0,93.86,12C94.12,11.17,94.3,10.36,94.51,9.57Zm9.31.27c-.12-1.32-.25-2.37-.29-3.41-.06-1.42-.8-1.38-1.74-.86-1.74,1-2.37,2.74-3,4.45s.3,3.5,1.48,3.77c1.42.33,2.64-.6,3.16-2.45C103.64,10.76,103.74,10.16,103.82,9.84Z"/><path class="cls-2" d="M115.1,5.06l-1.42,1.05c-2.59,1.87-2.6,1.87-1.3,4.64a15.16,15.16,0,0,1,1.23,3.94c.06.35,0,.7-.36.83s-.47-.21-.63-.42c-.76-.95-1.5-1.9-2.26-2.86-.54.27-.42.76-.5,1.15-.41,1.82-.82,2-2.6,1.58a.91.91,0,0,1-.81-1c0-2.49,0-5,0-7.46a1.29,1.29,0,0,1,.88-1.27c.51-.22,1.25-.29,1.49.24.44,1,.8.33,1.19.06,1.5-1,3-2.12,5-1.4.19.07.49-.17.75-.26,1.19-.38,1.91-.28,2.12,1.29a41.28,41.28,0,0,1,.55,5.76,10,10,0,0,1-.18,2c-.2.88-.54,2-1.54,1.9-1.2-.08-.92-1.33-1-2.14C115.47,10.18,115.65,7.68,115.1,5.06Z"/><path class="cls-2" d="M115.48,26c-.13,2.43-1.11,4.19-3.61,4.9a3.92,3.92,0,0,1-5-2.55,11.15,11.15,0,0,1-.48-5.7c.15-.43,0-.55-.37-.32s-.93.32-1.4.46c-2.48.74-2.48.74-2.46,3.44a8.26,8.26,0,0,1-.49,3.53c-.19.43-.37,1.31-1.23,1.05-.7-.21-.52-.89-.57-1.4-.16-1.59-.31-3.19-.36-4.78,0-1-.23-1.74-1.41-1.8-.62,0-.65-.46-.59-.94l0,0c2.27-.31,4.38-1.36,6.71-1.39,1.51,0,3,0,4.11,1.23.48.53.9.31,1.3-.22s.73-1.5,1.5-1.92a3.1,3.1,0,0,1,4.37,2.53,7,7,0,0,1,.08,2.78A1.55,1.55,0,0,0,115.48,26Zm-1.69-.05c-.13-1.49-.24-2.59-.32-3.69s-.66-1.08-1.48-.75c-1.93.78-3.79,4.56-3.19,6.55.26.87.61,1.71,1.69,1.78a2.41,2.41,0,0,0,2.58-1.41A7.71,7.71,0,0,0,113.79,25.91Z"/><path class="cls-2" d="M116.13,24.91c.2-.86.35-1.74.63-2.57a3.47,3.47,0,0,1,2.93-2.59c1.61-.2,2.72.83,3.67,1.91.62.71.15,1.39-.4,2-.82,1-1.6,1.91.27,2.82a2.79,2.79,0,0,1,1.54,3.07c-.08.5-.27,1.06-.81,1.14-.71.12-.67-.55-.8-1-.59-2.08-1.55-2.91-3-2.62a1.21,1.21,0,0,0-1.14,1.31c-.09,1.26,0,3-1.86,2.91s-1.31-1.82-1.4-3a22.48,22.48,0,0,1,.08-2.32A1.11,1.11,0,0,0,116.13,24.91Zm2.72,0a5.86,5.86,0,0,0,2.48-2.76c.1-.2.08-.66,0-.75-.35-.22-.57.11-.73.39A13.52,13.52,0,0,0,118.85,24.94Z"/><path class="cls-2" d="M88.85,29.83c-.12-.93-.21-1.86-.37-2.78-.33-2-.25-4.08-1-6A2.86,2.86,0,0,0,85,19.23c-.87-.11-1.29.91-1.63,1.66-1.24,2.7-1.36,5.66-2,8.48-.23,1.18.29,1.62,1.4,1.73s1.65-.23,1.6-1.4a7.46,7.46,0,0,1,.15-1.49c.07-.39-.13-1,.54-1,.52,0,1.13.08,1.32.78s.48,1.47.66,2.22c.14.57.43.95,1,.88S88.93,30.44,88.85,29.83Zm-4.37-5c-.26-.35.65-2.88.65-2.88.66-.86,1.06,2.22,1.06,2.88S84.73,25.18,84.48,24.83Z"/><path class="cls-2" d="M126.46,4.41a19.22,19.22,0,0,1-2.59.3c-1,0-1.43.31-1.41,1.32,0,.82-.38,1.81,0,2.4s1.4-.08,2.15.06c.49.08,1,0,1.42.53a8,8,0,0,1-2.91,1c-1.78.48-.54,1.58-.57,2.37s.42,1.3,1.4,1a25.21,25.21,0,0,1,2.73-.65.85.85,0,0,1,1.08.54c.15.5-.38.68-.68.76a51.82,51.82,0,0,1-5.3,1.3c-1,.16-1.65-.31-2-1.49-.75-2.7-.44-5.38-.23-8.07a1.6,1.6,0,0,1,1.69-1.65,19.76,19.76,0,0,1,5.15-.14Z"/><path class="cls-2" d="M127.9,21.3a3.74,3.74,0,0,0,.95-1.68c.35-.94.8-1.44,2-1,.88.31,1.18.59.82,1.5-.95,2.4-1.49,5-3,7.14a9.78,9.78,0,0,0-1.28,3.05,1.27,1.27,0,0,1-1.5,1c-.76-.17-.42-1-.22-1.39,1.65-3.1.94-5.95-.71-8.79-.34-.59-1.06-1.36-.37-2.11.42-.47,1,0,1.55.15.78.22,1.73.38,1.58,1.59C127.64,20.87,127.78,21,127.9,21.3Z"/><path class="cls-2" d="M81.66,21.49c-1.63-.11-3-.52-4.36-.19-1.89.44-.89,1.87-1,2.85-.14,1.19.79.46,1.27.53s1.34.14,1.48.81-.62.75-1,.82c-1.75.31-1.83,1.4-1.55,2.82.12.56.53,1.4-.5,1.63-.61.13-1.15.12-1.36-.75A26.07,26.07,0,0,1,73.85,22a1.82,1.82,0,0,1,.73-1.58c1.35-.9,5.48-.73,6.69.33A3.28,3.28,0,0,1,81.66,21.49Z"/><path class="cls-2" d="M97.5,21.89l0,0a1.48,1.48,0,0,1-1.84.09c-1-1-1.39-.33-1.88.43-1,1.63-2.16,3.23-2.28,5.25s1,2.86,2.94,2.32c.86-.24,1.7-.83,2.9,0-2.34.89-4.46,1.55-6.7.72a2.06,2.06,0,0,1-1.39-2.38,14.45,14.45,0,0,1,2.8-7,3.6,3.6,0,0,1,4.65-.84C97.24,20.78,97.83,21.09,97.5,21.89Z"/><path class="cls-2" d="M86.91,6.11C86,6,85,6.53,84.33,5.48c-.17-.26-.74,0-1,.34A14.3,14.3,0,0,0,80.78,11c-.49,2.5.78,3.63,3.18,2.84a2.46,2.46,0,0,1,2.67.19c-2.42.75-4.49,1.44-6.69.71a2,2,0,0,1-1.44-2.19,12.82,12.82,0,0,1,2.84-7.31,3.38,3.38,0,0,1,3.91-1c1,.32,1.71.78,1.63,2Z"/><path class="cls-2" d="M21.09,21.1a2.56,2.56,0,0,1-2.68-2.37A2.71,2.71,0,0,1,21,15.84a3,3,0,0,1,2.77,2.59A2.77,2.77,0,0,1,21.09,21.1Z"/><path class="cls-2" d="M52.38,18.43a2.6,2.6,0,1,1-.22-5.2A2.93,2.93,0,0,1,55,15.74,2.74,2.74,0,0,1,52.38,18.43Z"/><path class="cls-2" d="M36.71,30.17a2.76,2.76,0,0,1,2.55-2.72A2.61,2.61,0,0,1,42,30a2.75,2.75,0,0,1-2.5,2.77A3.07,3.07,0,0,1,36.71,30.17Z"/><path class="cls-2" d="M26.38,28.54a2.65,2.65,0,1,1-2.52-2.45A2.44,2.44,0,0,1,26.38,28.54Z"/><path class="cls-2" d="M39.35,18.39a2.75,2.75,0,0,1-2.56,2.71A2.81,2.81,0,0,1,34,18.59a2.63,2.63,0,0,1,2.51-2.7A2.94,2.94,0,0,1,39.35,18.39Z"/><path class="cls-2" d="M10.66,26.09a2.3,2.3,0,0,1,2.44,2.53,2.42,2.42,0,0,1-2.66,2.49,2.65,2.65,0,0,1-2.65-2.62A2.68,2.68,0,0,1,10.66,26.09Z"/><path class="cls-2" d="M46,8.16a2.51,2.51,0,1,1-5-.05,2.51,2.51,0,1,1,5,.05Z"/><path class="cls-2" d="M55.66,27.49A2.42,2.42,0,0,1,53,30a2.48,2.48,0,0,1-2.39-2.78,2.36,2.36,0,0,1,2.54-2.4A2.52,2.52,0,0,1,55.66,27.49Z"/><path class="cls-2" d="M24.93,3.79A2.3,2.3,0,0,1,27.4,6.26a2.3,2.3,0,0,1-2.54,2.55,2.29,2.29,0,0,1-2.47-2.47A2.3,2.3,0,0,1,24.93,3.79Z"/></g></g></svg>